<?xml version="1.0" encoding="utf-8"?>
<!-- Generator: Adobe Illustrator 26.3.0, SVG Export Plug-In . SVG Version: 6.00 Build 0)  -->
<svg version="1.1" id="Layer_1" xmlns="http://www.w3.org/2000/svg" xmlns:xlink="http://www.w3.org/1999/xlink" x="0px" y="0px"
	 viewBox="0 0 32 32" style="enable-background:new 0 0 32 32;" xml:space="preserve">
<g>
	<path d="M6.5,18.2c0,0,0,0.1-0.1,0.2c-0.5,0.6-1.3,1-2.1,1c-0.9,0-1.7-0.3-2.2-0.9c-0.6-0.6-0.8-1.4-0.8-2.3c0-0.9,0.3-1.6,0.8-2.3
		c0.6-0.7,1.3-1,2.2-1c0.9,0,1.7,0.3,2.2,0.9c0.1,0.1,0.1,0.1,0.1,0.2c0,0.1-0.1,0.3-0.3,0.6c-0.2,0.4-0.3,0.6-0.4,0.6
		c0,0-0.1,0-0.1,0c0,0-0.1-0.1-0.2-0.2c-0.2-0.1-0.3-0.3-0.5-0.3c-0.2-0.1-0.5-0.2-0.7-0.2c-0.4,0-0.8,0.2-1,0.5
		C3.1,15.3,3,15.7,3,16.1c0,0.4,0.1,0.8,0.4,1.1c0.3,0.3,0.6,0.5,1,0.5c0.3,0,0.5-0.1,0.7-0.2c0.1-0.1,0.3-0.2,0.5-0.3
		c0.1-0.1,0.2-0.2,0.2-0.2c0,0,0.1,0,0.1,0c0,0.1,0.2,0.2,0.4,0.5C6.4,18,6.5,18.2,6.5,18.2z"/>
	<path d="M11.4,16l0,3c0,0.1,0,0.2-0.1,0.2c-0.1,0-0.3,0-0.6,0c-0.3,0-0.5,0-0.7,0c-0.1,0-0.1-0.1-0.1-0.2c0-0.3,0-0.6,0-1.1
		c0-0.5,0-0.9,0-1.1c0-0.3-0.2-0.5-0.5-0.5c-0.1,0-0.3,0-0.4,0.1c-0.2,0.1-0.3,0.2-0.3,0.3v1.1c0,0.1,0,0.4,0,0.6s0,0.5,0,0.6
		c0,0.1,0,0.2-0.1,0.2s-0.3,0-0.8,0c-0.2,0-0.4,0-0.5,0S7,19.1,7,19.1c0-0.2,0-0.6,0-1c0-0.5,0-0.8,0-1c0-1,0-1.8,0-2.4
		c0-0.2,0-0.4,0-0.7c0-0.3,0-0.5-0.1-0.7c0,0,0-0.1,0-0.1c0,0,0-0.1,0.1-0.1c0.1,0,0.2,0,0.4,0c0.2,0,0.4,0,0.4,0l0.8-0.1
		c0,0,0.1,0,0.1,0.1c0,0.1,0,0.2,0,0.4c0,0.2,0,0.3,0,0.4c0,0.7,0,1.2,0,1.6c0,0.1,0,0.1,0,0.1c0,0,0.1-0.1,0.2-0.2
		C9,15.2,9.2,15.1,9.3,15c0.2-0.1,0.5-0.2,0.7-0.2c0.4,0,0.7,0.1,0.9,0.3C11.2,15.4,11.4,15.7,11.4,16z"/>
	<path d="M16.5,17c0,0.2,0,0.6,0,1s0,0.8,0,1c0,0.1-0.1,0.2-0.2,0.2c-0.4,0-0.8,0-1.2,0c-0.1,0-0.1-0.1-0.1-0.3c0-0.2,0-0.3-0.1-0.3
		c0,0-0.1,0-0.1,0.1c-0.3,0.3-0.7,0.5-1.1,0.5c-0.6,0-1-0.2-1.4-0.7c-0.4-0.4-0.5-0.9-0.5-1.5c0-0.7,0.2-1.2,0.5-1.6
		c0.4-0.4,0.9-0.6,1.6-0.6c0.5,0,0.8,0.2,1.1,0.5c0,0,0,0,0,0c0,0,0.1-0.1,0.1-0.2c0-0.1,0.1-0.2,0.1-0.2c0.1,0,0.3,0,0.6,0.1
		c0.3,0.1,0.5,0.1,0.6,0.1c0,0,0.1,0,0.1,0.1c0,0,0,0,0,0.1C16.5,15.9,16.5,16.4,16.5,17z M15.1,17c0-0.2-0.1-0.5-0.2-0.6
		c-0.2-0.2-0.4-0.2-0.6-0.2s-0.5,0.1-0.6,0.2s-0.2,0.4-0.2,0.6c0,0.2,0.1,0.4,0.2,0.6s0.4,0.3,0.6,0.3c0.2,0,0.5-0.1,0.6-0.2
		S15.1,17.3,15.1,17z"/>
	<path d="M20.3,17.9c0,0.1,0,0.2,0,0.4c0,0.2,0,0.3,0,0.4s0,0.1,0,0.2s-0.1,0.1-0.1,0.1c-0.4,0.2-0.8,0.3-1.3,0.3
		c-0.8,0-1.3-0.3-1.3-1c0-0.2,0-0.5,0-0.9c0-0.4,0-0.7,0-0.9c0-0.1-0.1-0.2-0.2-0.2c0,0,0,0-0.1,0c0,0,0,0-0.1,0
		c-0.1,0-0.2,0-0.2-0.1c0,0,0-0.1,0-0.2c0-0.1,0-0.2,0-0.2c0-0.1,0-0.2,0-0.3c0-0.1,0-0.2,0-0.3c0-0.1,0.1-0.1,0.3-0.1
		c0.1,0,0.2,0,0.2-0.1c0-0.1,0-0.3,0-0.5c0-0.4,0-0.6,0-0.5c0-0.3,0-0.5,0.1-0.5c0.1,0,0.2,0,0.3,0.1c0.2,0,0.3,0.1,0.3,0.1
		c0.1,0,0.4,0,0.7,0.1c0.1,0,0.1,0,0.1,0.1c0,0.1,0,0.3,0,0.5c0,0.2,0,0.4,0,0.5c0,0.1,0,0.2,0.1,0.2c0.1,0,0.3,0,0.5,0
		c0.2,0,0.4,0,0.5,0c0.1,0,0.1,0,0.1,0.1c0,0.1,0,0.2,0,0.3c0,0.1,0,0.2,0,0.3c0,0.1,0,0.2,0,0.3c0,0.1,0,0.2,0,0.3
		c0,0.1,0,0.1-0.1,0.1c-0.1,0-0.2,0-0.3,0c-0.1,0-0.2,0-0.3,0h-0.3c0,0-0.1,0.1-0.1,0.2c0,0.1,0,0.2,0,0.3c0,0.1,0,0.2,0,0.3
		c0,0.2,0,0.4,0.1,0.5c0.1,0.1,0.2,0.2,0.5,0.2c0.1,0,0.2,0,0.3-0.1C20.1,17.8,20.2,17.8,20.3,17.9C20.3,17.8,20.3,17.9,20.3,17.9z"
		/>
	<path d="M27.4,19.1c0,0.1,0,0.1-0.1,0.1h-1.6c-0.1,0-0.1-0.1-0.1-0.2c0-0.3,0-0.7,0-1.3c0-0.6,0-1,0-1.3c0-0.1,0-0.1,0-0.1
		c0,0-0.2,0.5-0.6,1.4c-0.2,0.5-0.4,1-0.6,1.6c0,0.1-0.1,0.1-0.1,0.1c0,0-0.1,0-0.2,0c-0.2,0-0.2,0-0.3-0.1
		c-0.2-0.3-0.4-0.8-0.6-1.4c-0.3-0.7-0.5-1.1-0.6-1.4c0,0,0,0,0,0c0,0,0,0.1,0,0.1c0,0.3,0,0.7,0,1.3s0,1,0,1.3c0,0.1,0,0.2-0.1,0.2
		h-1.5c-0.1,0-0.1,0-0.1,0c0,0,0-0.1,0-0.1c0-0.3,0-0.8,0-1.4c0-0.6,0-1.1,0-1.4c0-0.3,0-1,0-1.9c0-0.2,0-0.6,0-1.1l0-0.1
		c0-0.1,0.1-0.1,0.2-0.1c0.2,0,0.4,0,0.7,0s0.6,0,0.7,0c0,0,0.1,0.1,0.1,0.2l1.3,2.8c0.1,0.2,0.2,0.3,0.2,0.3c0,0,0.1-0.1,0.2-0.3
		c0.3-0.6,0.7-1.5,1.3-2.8c0-0.1,0.1-0.2,0.2-0.2c0.1,0,0.2,0,0.4,0c0.2,0,0.3,0,0.4,0c0.1,0,0.2,0,0.3,0c0.2,0,0.3,0,0.3,0
		c0.1,0,0.1,0,0.1,0.1c0,0.3,0,0.9,0,1.5c0,0.7,0,1.2,0,1.5c0,0.3,0,0.8,0,1.4S27.4,18.8,27.4,19.1z"/>
	<path d="M32.2,16.8c0,0.3-0.1,0.5-0.3,0.5c0,0-0.3,0-0.9,0.1c-0.3,0-0.9,0.1-1.5,0.1c0,0.2,0.2,0.3,0.4,0.4
		c0.2,0.1,0.4,0.1,0.6,0.1c0.3,0,0.5-0.1,0.8-0.2c0.1-0.1,0.2-0.1,0.3-0.2c0.1,0,0.2,0.2,0.3,0.4c0.1,0.3,0.2,0.4,0.2,0.5
		c0,0,0,0.1-0.1,0.1c-0.4,0.4-0.9,0.6-1.7,0.6c-0.7,0-1.3-0.2-1.7-0.6c-0.4-0.4-0.7-1-0.7-1.7c0-0.7,0.2-1.2,0.6-1.7
		c0.4-0.4,0.9-0.7,1.6-0.7c0.6,0,1,0.2,1.4,0.6C32,15.8,32.2,16.3,32.2,16.8z M30.6,16.6c0-0.2-0.1-0.3-0.2-0.5
		c-0.1-0.1-0.3-0.2-0.5-0.2c-0.2,0-0.3,0.1-0.5,0.2c-0.1,0.1-0.2,0.3-0.2,0.5c0,0.1,0,0.1,0.1,0.1c0.2,0,0.6,0,1-0.1
		C30.6,16.6,30.6,16.6,30.6,16.6z"/>
</g>
</svg>
